HIERARCHY
ROOT Hips
{
	OFFSET -3.958830 18.904000 13.208200
	CHANNELS 6 Xposition Yposition Zposition Zrotation Yrotation Xrotation 
	JOINT LHipJoint
	{
		OFFSET 0.000000 0.000000 0.000000
		CHANNELS 3 Zrotation Yrotation Xrotation
		JOINT LeftUpLeg
		{
			OFFSET 1.800000 -1.400000 0.085000
			CHANNELS 3 Zrotation Yrotation Xrotation
			JOINT LeftLeg
			{
				OFFSET 2.215000 -6.000000 0.000000
				CHANNELS 3 Zrotation Yrotation Xrotation
				JOINT LeftFoot
				{
					OFFSET 2.500000 -6.900000 0.000000
					CHANNELS 3 Zrotation Yrotation Xrotation
					JOINT LeftToeBase
					{
						OFFSET 0.200000 -0.500000 1.950000
						CHANNELS 3 Zrotation Yrotation Xrotation
						End Site
						{
							OFFSET 0.000000 0.000000 0.000000
						}
					}
				}
			}
		}
	}
	JOINT RHipJoint
	{
		OFFSET 0.000000 0.000000 0.000000
		CHANNELS 3 Zrotation Yrotation Xrotation
		JOINT RightUpLeg
		{
			OFFSET -1.800000 -1.400000 0.085000
			CHANNELS 3 Zrotation Yrotation Xrotation
			JOINT RightLeg
			{
				OFFSET -2.215000 -6.000000 0.000000
				CHANNELS 3 Zrotation Yrotation Xrotation
				JOINT RightFoot
				{
					OFFSET -2.500000 -6.900000 0.000000
					CHANNELS 3 Zrotation Yrotation Xrotation
					JOINT RightToeBase
					{
						OFFSET -0.200000 -0.500000 1.950000
						CHANNELS 3 Zrotation Yrotation Xrotation
						End Site
						{
							OFFSET 0.000000 0.000000 0.000000
						}
					}
				}
			}
		}
	}
	JOINT LowerBack
	{
		OFFSET 0.000000 0.000000 0.000000
		CHANNELS 3 Zrotation Yrotation Xrotation
		JOINT Spine
		{
			OFFSET -0.087000 1.940000 -0.288900
			CHANNELS 3 Zrotation Yrotation Xrotation
			JOINT Spine1
			{
				OFFSET 0.000000 1.950000 0.060000
				CHANNELS 3 Zrotation Yrotation Xrotation
				JOINT Neck
				{
					OFFSET 0.000000 0.000000 0.000000
					CHANNELS 3 Zrotation Yrotation Xrotation
					JOINT Neck1
					{
						OFFSET 0.000000 1.600000 0.340000
						CHANNELS 3 Zrotation Yrotation Xrotation
						JOINT Head
						{
							OFFSET 0.000000 1.667000 -0.240000
							CHANNELS 3 Zrotation Yrotation Xrotation
							End Site
							{
								OFFSET 0.000000 0.000000 0.000000
							}
						}
					}
				}
				JOINT LeftShoulder
				{
					OFFSET 0.000000 0.000000 0.000000
					CHANNELS 3 Zrotation Yrotation Xrotation
					JOINT LeftArm
					{
						OFFSET 2.700000 1.550000 -0.730000
						CHANNELS 3 Zrotation Yrotation Xrotation
						JOINT LeftForeArm
						{
							OFFSET 5.450000 0.000000 0.000000
							CHANNELS 3 Zrotation Yrotation Xrotation
							JOINT LeftHand
							{
								OFFSET 3.450000 0.000000 0.000000
								CHANNELS 3 Zrotation Yrotation Xrotation
								JOINT LeftHandIndex1
								{
									OFFSET 0.750000 0.000000 0.000000
									CHANNELS 3 Zrotation Yrotation Xrotation
									End Site
									{
										OFFSET 0.000000 0.000000 0.000000
									}
								}
							}
						}
					}
				}
				JOINT RightShoulder
				{
					OFFSET 0.000000 0.000000 0.000000
					CHANNELS 3 Zrotation Yrotation Xrotation
					JOINT RightArm
					{
						OFFSET -2.700000 1.550000 -0.730000
						CHANNELS 3 Zrotation Yrotation Xrotation
						JOINT RightForeArm
						{
							OFFSET -5.450000 0.000000 0.000000
							CHANNELS 3 Zrotation Yrotation Xrotation
							JOINT RightHand
							{
								OFFSET -3.450000 0.000000 0.000000
								CHANNELS 3 Zrotation Yrotation Xrotation
								JOINT RightHandIndex1
								{
									OFFSET -0.750000 0.000000 0.000000
									CHANNELS 3 Zrotation Yrotation Xrotation
									End Site
									{
										OFFSET 0.000000 0.000000 0.000000
									}
								}
							}
						}
					}
				}
			}
		}
	}
}
MOTION
Frames: 4
Frame Time: 0.016667
0.170140 12.452760 -4.421610 -9.802020 57.959429 -33.953244 -15.643681 9.042418 5.978166 12.737323 -20.447771 -35.284457 29.597047 23.667505 155.529957 3.657782 16.438495 -0.559621 0.483070 0.588640 0.237680 18.548222 -5.344446 5.692105 -10.876551 21.684365 -60.068442 -32.275878 -19.376342 155.601158 -3.987863 -15.768639 -0.515543 0.221070 -0.394070 -0.044520 -2.185527 -4.979524 -11.779260 14.014571 -6.513430 45.714734 -3.967484 4.250371 -1.202551 7.372810 -3.367023 -31.251244 -24.301199 5.942936 92.929075 10.092170 -20.840600 -4.558470 -56.118624 -32.487754 6.475131 -37.371423 -7.538252 -6.164084 -11.476268 -10.298958 -0.328823 -2.883886 2.897579 0.501720 -0.553570 0.538100 0.039510 45.574072 39.741614 15.214153 16.414640 -12.799007 -1.735457 -3.806326 -17.424202 0.855095 3.559284 0.050715 0.190380 0.171190 -0.143090 0.099010 
0.167360 12.458340 -4.424960 -9.940748 58.093230 -34.102986 -15.641439 9.063103 5.966995 12.584055 -20.390175 -35.377033 29.536943 23.641659 155.353133 3.660609 16.479319 -0.570109 0.485050 0.591300 0.239870 18.551242 -5.335341 5.703237 -10.847901 21.749834 -60.299139 -32.205760 -19.452039 155.472660 -3.996516 -15.807207 -0.523862 0.223830 -0.393340 -0.044500 -2.188263 -5.006341 -11.772474 14.079804 -6.654831 45.719289 -4.198732 4.086745 -1.028523 7.408617 -3.191443 -31.451625 -23.923680 5.801879 93.232392 10.017790 -20.782070 -4.577390 -56.160551 -32.672305 6.595000 -37.061294 -7.644780 -6.138755 -11.443356 -10.167536 -0.344058 -2.887426 2.889459 0.503150 -0.552800 0.539170 0.039860 45.433331 39.857129 15.393575 16.441579 -11.781871 -1.635692 -3.410300 -16.962778 0.783456 3.539250 0.044197 0.189020 0.174710 -0.142970 0.098120 
0.162450 12.474450 -4.427070 -10.168167 58.356716 -34.334802 -15.639412 9.123275 5.954862 12.337368 -20.319982 -35.630553 29.433117 23.320331 154.905582 3.660421 16.531855 -0.585834 0.490190 0.598420 0.243080 18.547037 -5.343683 5.704046 -10.887418 21.672703 -60.024181 -31.982103 -20.076580 155.252363 -4.018875 -15.895805 -0.543062 0.229470 -0.392240 -0.045900 -2.159935 -5.107101 -11.744186 14.099347 -6.887492 45.678120 -4.432617 3.834485 -0.978722 7.486906 -3.028607 -31.779766 -23.749348 6.012914 93.903681 9.899850 -20.738860 -4.573380 -56.522985 -32.755663 6.748927 -36.499376 -7.676387 -6.025909 -11.360146 -9.725875 -0.385138 -2.897472 2.870541 0.505000 -0.554020 0.541300 0.041230 45.556964 39.892416 15.705808 16.180781 -10.067186 -1.348822 -2.836133 -16.088851 0.681117 3.511110 0.042092 0.187990 0.181560 -0.143680 0.099110 
0.162000 12.487910 -4.432310 -10.580455 58.705036 -34.640031 -15.633518 9.197676 5.945364 11.981510 -20.256180 -35.854262 29.403666 22.843182 154.547730 3.660190 16.547448 -0.592376 0.495940 0.606050 0.246180 18.545052 -5.340747 5.710390 -11.198851 21.535145 -59.635776 -31.768001 -20.952342 155.168246 -4.043938 -15.989014 -0.561956 0.233060 -0.394280 -0.045370 -2.120732 -5.262435 -11.709823 14.291663 -7.296873 45.452857 -4.745081 3.367596 -1.050160 7.563681 -2.880970 -31.993850 -23.776436 6.392130 94.473899 9.532930 -20.739530 -4.449460 -57.037243 -32.630672 6.938579 -35.935477 -7.538168 -6.071975 -11.070596 -9.515663 -0.416277 -2.897471 2.868449 0.501610 -0.555600 0.543010 0.042820 45.770137 39.707002 16.210982 15.970645 -7.977925 -0.907845 -2.564717 -14.126768 0.587819 3.462384 -0.010144 0.192360 0.182490 -0.146410 0.102280 
